<svg width="138" height="60" viewBox="0 0 138 60" fill="none" xmlns="http://www.w3.org/2000/svg">
<path d="M23.6922 38.9905V35.8733L30.3449 29.2356V29.0348H23.9402V26.2695H34.1179V29.412L27.4652 36.0245V36.2252H34.4903V38.9905H23.6914H23.6922Z" fill="black"/>
<path d="M35.6094 32.6291C35.6094 28.7324 38.4393 25.9419 42.3865 25.9419C46.3337 25.9419 49.1636 28.7324 49.1636 32.6291C49.1636 36.5259 46.3586 39.3164 42.3865 39.3164C38.4144 39.3164 35.6094 36.5511 35.6094 32.6291ZM45.9115 32.6291C45.9115 30.341 44.5214 28.8332 42.3865 28.8332C40.2516 28.8332 38.8615 30.3418 38.8615 32.6291C38.8615 34.9165 40.2765 36.4259 42.3865 36.4259C44.4965 36.4259 45.9115 34.9425 45.9115 32.6291Z" fill="black"/>
<path d="M50.8984 38.9905V26.2687H53.9764V28.0033H54.1746C54.9194 26.545 56.3344 25.9419 57.8987 25.9419C60.654 25.9419 62.3427 27.8277 62.3427 30.9197V38.9905H59.2647V31.6489C59.2647 29.8135 58.2968 28.808 56.633 28.808C54.9692 28.808 53.9764 29.8639 53.9764 31.6489V38.9905H50.8984Z" fill="black"/>
<path d="M63.9844 32.6291C63.9844 28.7324 66.4668 25.9419 70.0416 25.9419C71.7792 25.9419 73.4422 26.6458 74.3114 28.2049H74.4856V26.2687H77.5884V38.9905H74.4856V37.0543H74.3114C73.4422 38.6133 71.8041 39.3172 70.0416 39.3172C66.4668 39.3172 63.9844 36.5519 63.9844 32.63V32.6291ZM74.4847 32.6291C74.4847 30.3158 73.0698 28.808 70.8602 28.808C68.6506 28.808 67.2108 30.3166 67.2108 32.6291C67.2108 34.9417 68.6506 36.4503 70.8602 36.4503C73.0698 36.4503 74.4847 34.9669 74.4847 32.6291Z" fill="black"/>
<path d="M79.9961 44.0187V26.2687H83.074V28.2049H83.2723C84.1166 26.6458 85.7796 25.9419 87.5172 25.9419C91.092 25.9419 93.5993 28.7072 93.5993 32.6291C93.5993 36.5511 91.092 39.3164 87.5172 39.3164C85.7796 39.3164 84.1166 38.6125 83.2723 37.0534H83.074V44.0179H79.9961V44.0187ZM90.348 32.63C90.348 30.2923 88.9081 28.8088 86.6986 28.8088C84.489 28.8088 83.074 30.2923 83.074 32.63C83.074 34.9677 84.5139 36.4511 86.6986 36.4511C88.8832 36.4511 90.348 34.9425 90.348 32.63Z" fill="black"/>
<path d="M95.3602 38.9904V26.2686H98.4382V28.3803H98.6364C99.1083 26.7457 99.9767 26.1426 101.839 26.1426H102.384V29.2598H100.697C99.0585 29.2598 98.4373 30.4165 98.4373 32.1007V38.9895H95.3594L95.3602 38.9904Z" fill="black"/>
<path d="M102.809 32.6291C102.809 28.7324 105.639 25.9419 109.586 25.9419C113.533 25.9419 116.363 28.7324 116.363 32.6291C116.363 36.5259 113.558 39.3164 109.586 39.3164C105.614 39.3164 102.809 36.5511 102.809 32.6291ZM113.111 32.6291C113.111 30.341 111.721 28.8332 109.586 28.8332C107.451 28.8332 106.061 30.3418 106.061 32.6291C106.061 34.9165 107.476 36.4259 109.586 36.4259C111.696 36.4259 113.111 34.9425 113.111 32.6291Z" fill="black"/>
<path d="M118.102 44.0187V26.2687H121.18V28.2049H121.378C122.222 26.6458 123.885 25.9419 125.623 25.9419C129.197 25.9419 131.705 28.7072 131.705 32.6291C131.705 36.5511 129.197 39.3164 125.623 39.3164C123.885 39.3164 122.222 38.6125 121.378 37.0534H121.18V44.0179H118.102V44.0187ZM128.453 32.63C128.453 30.2923 127.014 28.8088 124.804 28.8088C122.594 28.8088 121.18 30.2923 121.18 32.63C121.18 34.9677 122.619 36.4511 124.804 36.4511C126.989 36.4511 128.453 34.9425 128.453 32.63Z" fill="black"/>
<path d="M7.22132 33.5275C6.5918 33.7585 6.55364 34.6456 7.16077 34.9303L9.55694 36.0559C9.73775 36.1408 9.94428 36.1492 10.1317 36.0794L15.8223 33.9584V30.375L7.22132 33.5267V33.5275Z" fill="#FF5500"/>
<path d="M13.4997 36.5011C12.8718 36.7347 12.8361 37.6209 13.4441 37.9039L15.8187 39.0111V35.6401L13.4997 36.5011Z" fill="#FF5500"/>
<path d="M20.1247 17.9474C20.1247 14.5858 17.3702 11.8751 14.0227 12.0044C10.9647 12.1229 8.47975 14.658 8.38354 17.7559C8.29562 20.5817 10.156 22.9807 12.7064 23.6846V26.2735L7.24476 28.2761C6.61523 28.5071 6.57708 29.3941 7.18421 29.6789L9.58038 30.8045C9.76119 30.8893 9.96772 30.8977 10.1552 30.828L15.8209 28.7171V23.6779C18.3025 22.9832 20.1255 20.6816 20.1255 17.9466L20.1247 17.9474ZM14.2583 20.7488C12.7396 20.7488 11.5088 19.5023 11.5088 17.9642C11.5088 16.4262 12.7396 15.1796 14.2583 15.1796C15.7769 15.1796 17.0078 16.4262 17.0078 17.9642C17.0078 19.5023 15.7769 20.7488 14.2583 20.7488Z" fill="#FF5500"/>
</svg>
