 <svg  version="1.0" xmlns="http://www.w3.org/2000/svg"  width="327.000000pt" height="308.000000pt" viewBox="0 0 327.000000 308.000000"  preserveAspectRatio="xMidYMid meet">  <g transform="translate(0.000000,308.000000) scale(0.100000,-0.100000)" fill="#ffffff" stroke="none"> <path d="M1083 2720 c-21 -12 -36 -32 -43 -57 -8 -27 -10 -334 -8 -1038 l3 -1000 185 0 185 0 5 213 5 214 28 24 c27 23 34 24 177 24 143 0 150 -1 177 -24 l28 -24 5 -214 5 -213 185 0 185 0 3 863 c2 942 4 915 -55 945 -35 18 -996 307 -1020 307 -10 0 -32 -9 -50 -20z m469 -618 c18 -18 18 -166 0 -184 -17 -17 -166 -18 -183 -1 -15 15 -24 101 -15 148 5 24 15 39 29 45 31 13 154 7 169 -8z m320 0 c18 -18 18 -166 0 -184 -17 -17 -166 -18 -183 -1 -15 15 -24 101 -15 148 5 24 15 39 29 45 31 13 154 7 169 -8z m-320 -320 c18 -18 18 -166 0 -184 -17 -17 -166 -18 -183 -1 -15 15 -24 101 -15 148 5 24 15 39 29 45 31 13 154 7 169 -8z m320 0 c18 -18 18 -166 0 -184 -17 -17 -166 -18 -183 -1 -15 15 -24 101 -15 148 5 24 15 39 29 45 31 13 154 7 169 -8z m-320 -320 c18 -18 18 -166 0 -184 -17 -17 -166 -18 -183 -1 -15 15 -24 101 -15 148 5 24 15 39 29 45 31 13 154 7 169 -8z m320 0 c18 -18 18 -166 0 -184 -17 -17 -166 -18 -183 -1 -15 15 -24 101 -15 148 5 24 15 39 29 45 31 13 154 7 169 -8z"/> <path d="M723 2426 c-66 -30 -63 10 -63 -886 l0 -810 -40 0 c-50 0 -80 -36 -62 -75 15 -33 34 -36 212 -33 l155 3 0 905 0 905 -85 2 c-56 2 -96 -2 -117 -11z"/> <path d="M2312 1328 l3 -703 155 -3 c178 -3 197 0 212 33 18 39 -12 75 -62 75 l-40 0 0 555 c0 471 -2 560 -15 585 -10 19 -51 49 -129 94 -64 36 -118 66 -121 66 -3 0 -4 -316 -3 -702z"/> <path d="M1515 988 c-3 -8 -4 -92 -3 -188 l3 -175 105 0 105 0 0 185 0 185 -103 3 c-78 2 -104 0 -107 -10z"/> </g> </svg> 